<svg xmlns:xlink="http://www.w3.org/1999/xlink" height="841" xmlns="http://www.w3.org/2000/svg" xmlns:ed="https://www.edrawsoft.cn/xml/2017/SVGExtensions/" xmlns:ev="http://www.w3.org/2001/xml-events" width="1192" ed:name="页面-1" id="page300000100" ed:hSpacing="30" ed:vSpacing="30" viewBox="0 0 1192 841"><style type="text/css"><![CDATA[
g[ed\:togtopicid],g[ed\:hyperlink],g[ed\:comment],g[ed\:note] {cursor:pointer;}
g[id] {-moz-user-select: none;-ms-user-select: none;user-select: none;}
svg text::selection,svg tspan::selection{background-color: #4285f4;color: #ffffff;fill: #ffffff;}
.st3 {fill:#000000;font-family:宋体;font-size:9.75pt}
.st5 {fill:#303030;font-family:宋体;font-size:14.25pt;font-weight:bold}
.st2 {fill:#303030;font-family:宋体;font-size:9.75pt}
.st4 {fill:#303030}
.st1 {fill:#ffffff;font-family:宋体;font-size:18pt;font-weight:bold}
]]></style><defs/><rect fill="#ffffff" height="841" x="0" width="1192" y="0"/><path fill="none" stroke-linecap="round" transform="matrix(1,0,0,1,516.08,174.44)" ed:tosuperid="102" ed:parentid="297" stroke-linejoin="round" d="M-21.6,67.7L-10.6,67.7C5.7,-67.7,5.7,-67.7,21.6,-67.7" id="103" stroke="#454545"/><path fill="none" stroke-linecap="round" transform="matrix(1,0,0,1,516.08,249.56)" ed:tosuperid="104" ed:parentid="297" stroke-linejoin="round" d="M-10.6,-7.4C5.7,7.4,5.7,7.4,21.6,7.4" id="105" stroke="#454545"/><path fill="none" stroke-linecap="round" transform="matrix(1,0,0,1,516.08,295.31)" ed:tosuperid="194" ed:parentid="297" stroke-linejoin="round" d="M-10.6,-53.2C5.7,53.2,5.7,53.2,21.6,53.2" id="195" stroke="#454545"/><path fill="none" stroke-linecap="round" transform="matrix(1,0,0,1,516.08,309.81)" ed:tosuperid="196" ed:parentid="297" stroke-linejoin="round" d="M-10.6,-67.7C5.7,67.7,5.7,67.7,21.6,67.7" id="197" stroke="#454545"/><path fill="none" stroke-linecap="round" transform="matrix(1,0,0,1,603.28,81.38)" ed:tosuperid="198" ed:parentid="102" stroke-linejoin="round" d="M-21.6,25.4L-10.6,25.4C5.7,-25.4,5.7,-25.4,21.6,-25.4" id="199" stroke="#454545"/><path fill="none" stroke-linecap="round" transform="matrix(1,0,0,1,603.28,110.38)" ed:tosuperid="200" ed:parentid="102" stroke-linejoin="round" d="M-10.6,-3.6C5.7,3.6,5.7,3.6,21.6,3.6" id="201" stroke="#454545"/><path fill="none" stroke-linecap="round" transform="matrix(1,0,0,1,603.28,132.13)" ed:tosuperid="202" ed:parentid="102" stroke-linejoin="round" d="M-10.6,-25.4C5.7,25.4,5.7,25.4,21.6,25.4" id="203" stroke="#454545"/><path fill="none" stroke-linecap="round" transform="matrix(1,0,0,1,703.48,48.75)" ed:tosuperid="204" ed:parentid="198" stroke-linejoin="round" d="M-21.6,7.3L-10.6,7.3C5.7,-7.3,5.7,-7.3,21.6,-7.3" id="205" stroke="#454545"/><path fill="none" stroke-linecap="round" transform="matrix(1,0,0,1,703.48,63.25)" ed:tosuperid="206" ed:parentid="198" stroke-linejoin="round" d="M-10.6,-7.3C5.7,7.3,5.7,7.3,21.6,7.3" id="207" stroke="#454545"/><path fill="none" stroke-linecap="round" transform="matrix(1,0,0,1,807.21,106.75)" ed:tosuperid="208" ed:parentid="200" stroke-linejoin="round" d="M-21.6,7.3L-10.6,7.3C5.7,-7.3,5.7,-7.3,21.6,-7.3" id="209" stroke="#454545"/><path fill="none" stroke-linecap="round" transform="matrix(1,0,0,1,807.21,121.25)" ed:tosuperid="212" ed:parentid="200" stroke-linejoin="round" d="M-10.6,-7.3C5.7,7.3,5.7,7.3,21.6,7.3" id="213" stroke="#454545"/><path fill="none" stroke-linecap="round" transform="matrix(1,0,0,1,716.48,157.5)" ed:tosuperid="214" ed:parentid="202" stroke-linejoin="round" d="M-21.6,0L-10.6,0C5.7,0,5.7,0,21.6,0" id="215" stroke="#454545"/><path fill="none" stroke-linecap="round" transform="matrix(1,0,0,1,629.28,238.75)" ed:tosuperid="216" ed:parentid="104" stroke-linejoin="round" d="M-21.6,18.3L-10.6,18.3C5.7,-18.3,5.7,-18.3,21.6,-18.3" id="217" stroke="#454545"/><path fill="none" stroke-linecap="round" transform="matrix(1,0,0,1,629.28,275.25)" ed:tosuperid="218" ed:parentid="104" stroke-linejoin="round" d="M-10.6,-18.3C5.7,18.3,5.7,18.3,21.6,18.3" id="219" stroke="#454545"/><path fill="none" stroke-linecap="round" transform="matrix(1,0,0,1,729.48,210)" ed:tosuperid="220" ed:parentid="216" stroke-linejoin="round" d="M-21.6,10.5L-10.6,10.5C5.7,-10.5,5.7,-10.5,21.6,-10.5" id="221" stroke="#454545"/><path fill="none" stroke-linecap="round" transform="matrix(1,0,0,1,729.48,231)" ed:tosuperid="222" ed:parentid="216" stroke-linejoin="round" d="M-10.6,-10.5C5.7,10.5,5.7,10.5,21.6,10.5" id="223" stroke="#454545"/><path fill="none" stroke-linecap="round" transform="matrix(1,0,0,1,811.52,241.5)" ed:tosuperid="224" ed:parentid="222" stroke-linejoin="round" d="M-21.6,0L-10.6,0C5.7,0,5.7,0,21.6,0" id="225" stroke="#454545"/><path fill="none" stroke-linecap="round" transform="matrix(1,0,0,1,841.1,193)" ed:tosuperid="226" ed:parentid="220" stroke-linejoin="round" d="M-21.6,6.5L-10.6,6.5C5.7,-6.5,5.7,-6.5,21.6,-6.5" id="227" stroke="#454545"/><path fill="none" stroke-linecap="round" transform="matrix(1,0,0,1,841.1,206)" ed:tosuperid="228" ed:parentid="220" stroke-linejoin="round" d="M-10.6,-6.5C5.7,6.5,5.7,6.5,21.6,6.5" id="229" stroke="#454545"/><path fill="none" stroke-linecap="round" transform="matrix(1,0,0,1,729.48,280.5)" ed:tosuperid="231" ed:parentid="218" stroke-linejoin="round" d="M-21.6,13L-10.6,13C5.7,-13,5.7,-13,21.6,-13" id="232" stroke="#454545"/><path fill="none" stroke-linecap="round" transform="matrix(1,0,0,1,729.48,293.5)" ed:tosuperid="233" ed:parentid="218" stroke-linejoin="round" d="M-10.6,0C5.7,0,5.7,0,21.6,0" id="234" stroke="#454545"/><path fill="none" stroke-linecap="round" transform="matrix(1,0,0,1,729.48,306.5)" ed:tosuperid="235" ed:parentid="218" stroke-linejoin="round" d="M-10.6,-13C5.7,13,5.7,13,21.6,13" id="236" stroke="#454545"/><path fill="none" stroke-linecap="round" transform="matrix(1,0,0,1,668.28,348.5)" ed:tosuperid="237" ed:parentid="194" stroke-linejoin="round" d="M-21.6,0L-10.6,0C5.7,0,5.7,0,21.6,0" id="238" stroke="#454545"/><path fill="none" stroke-linecap="round" transform="matrix(1,0,0,1,825.95,348.5)" ed:tosuperid="239" ed:parentid="237" stroke-linejoin="round" d="M-21.6,0L-10.6,0C5.7,0,5.7,0,21.6,0" id="240" stroke="#454545"/><path fill="none" stroke-linecap="round" transform="matrix(1,0,0,1,642.28,377.5)" ed:tosuperid="241" ed:parentid="196" stroke-linejoin="round" d="M-21.6,0L-10.6,0C5.7,0,5.7,0,21.6,0" id="242" stroke="#454545"/><path fill="none" stroke-linecap="round" transform="matrix(1,0,0,1,830.2,377.5)" ed:tosuperid="243" ed:parentid="241" stroke-linejoin="round" d="M-21.6,0L-10.6,0C5.7,0,5.7,0,21.6,0" id="244" stroke="#454545"/><path fill="none" stroke-linecap="round" transform="matrix(1,0,0,1,976.72,241.5)" ed:tosuperid="245" ed:parentid="224" stroke-linejoin="round" d="M-21.6,0L-10.6,0C5.7,0,5.7,0,21.6,0" id="246" stroke="#454545"/><path fill="none" stroke-linecap="round" transform="matrix(1,0,0,1,554.08,620.88)" ed:tosuperid="247" ed:parentid="295" stroke-linejoin="round" d="M-21.6,46.9L-10.6,46.9C5.7,-46.9,5.7,-46.9,21.6,-46.9" id="248" stroke="#454545"/><path fill="none" stroke-linecap="round" transform="matrix(1,0,0,1,693.28,574)" ed:tosuperid="251" ed:parentid="247" stroke-linejoin="round" d="M-21.6,0L-10.6,0C5.7,0,5.7,0,21.6,0" id="252" stroke="#454545"/><path fill="none" stroke-linecap="round" transform="matrix(1,0,0,1,810.84,521.5)" ed:tosuperid="253" ed:parentid="251" stroke-linejoin="round" d="M-21.6,52.5L-10.6,52.5C5.7,-52.5,5.7,-52.5,21.6,-52.5" id="254" stroke="#454545"/><path fill="none" stroke-linecap="round" transform="matrix(1,0,0,1,810.84,583.75)" ed:tosuperid="255" ed:parentid="251" stroke-linejoin="round" d="M-10.6,-9.8C5.7,9.8,5.7,9.8,21.6,9.8" id="256" stroke="#454545"/><path fill="none" stroke-linecap="round" transform="matrix(1,0,0,1,1015.04,449.5)" ed:tosuperid="257" ed:parentid="253" stroke-linejoin="round" d="M-21.6,19.5L-10.6,19.5C5.7,-19.5,5.7,-19.5,21.6,-19.5" id="258" stroke="#454545"/><path fill="none" stroke-linecap="round" transform="matrix(1,0,0,1,1015.04,469)" ed:tosuperid="259" ed:parentid="253" stroke-linejoin="round" d="M-10.6,0C5.7,0,5.7,0,21.6,0" id="260" stroke="#454545"/><path fill="none" stroke-linecap="round" transform="matrix(1,0,0,1,1101.66,462.5)" ed:tosuperid="261" ed:parentid="259" stroke-linejoin="round" d="M-21.6,6.5L-10.6,6.5C5.7,-6.5,5.7,-6.5,21.6,-6.5" id="262" stroke="#454545"/><path fill="none" stroke-linecap="round" transform="matrix(1,0,0,1,1101.66,475.5)" ed:tosuperid="263" ed:parentid="259" stroke-linejoin="round" d="M-10.6,-6.5C5.7,6.5,5.7,6.5,21.6,6.5" id="264" stroke="#454545"/><path fill="none" stroke-linecap="round" transform="matrix(1,0,0,1,1015.04,488.5)" ed:tosuperid="265" ed:parentid="253" stroke-linejoin="round" d="M-10.6,-19.5C5.7,19.5,5.7,19.5,21.6,19.5" id="266" stroke="#454545"/><path fill="none" stroke-linecap="round" transform="matrix(1,0,0,1,976.04,565.25)" ed:tosuperid="267" ed:parentid="255" stroke-linejoin="round" d="M-21.6,28.3L-10.6,28.3C5.7,-28.3,5.7,-28.3,21.6,-28.3" id="268" stroke="#454545"/><path fill="none" stroke-linecap="round" transform="matrix(1,0,0,1,976.04,579.75)" ed:tosuperid="269" ed:parentid="255" stroke-linejoin="round" d="M-10.6,13.8C5.7,-13.8,5.7,-13.8,21.6,-13.8" id="270" stroke="#454545"/><path fill="none" stroke-linecap="round" transform="matrix(1,0,0,1,976.04,594.25)" ed:tosuperid="271" ed:parentid="255" stroke-linejoin="round" d="M-10.6,-0.8C5.7,0.8,5.7,0.8,21.6,0.8" id="272" stroke="#454545"/><path fill="none" stroke-linecap="round" transform="matrix(1,0,0,1,976.04,608.75)" ed:tosuperid="273" ed:parentid="255" stroke-linejoin="round" d="M-10.6,-15.3C5.7,15.3,5.7,15.3,21.6,15.3" id="274" stroke="#454545"/><path fill="none" stroke-linecap="round" transform="matrix(1,0,0,1,976.04,621.75)" ed:tosuperid="275" ed:parentid="255" stroke-linejoin="round" d="M-10.6,-28.3C5.7,28.3,5.7,28.3,21.6,28.3" id="276" stroke="#454545"/><path fill="none" stroke-linecap="round" transform="matrix(1,0,0,1,810.84,626.5)" ed:tosuperid="277" ed:parentid="251" stroke-linejoin="round" d="M-10.6,-52.5C5.7,52.5,5.7,52.5,21.6,52.5" id="278" stroke="#454545"/><path fill="none" stroke-linecap="round" transform="matrix(1,0,0,1,554.08,714.63)" ed:tosuperid="279" ed:parentid="295" stroke-linejoin="round" d="M-10.6,-46.9C5.7,46.9,5.7,46.9,21.6,46.9" id="280" stroke="#454545"/><path fill="none" stroke-linecap="round" transform="matrix(1,0,0,1,794.37,769.5)" ed:tosuperid="281" ed:parentid="287" stroke-linejoin="round" d="M-10.6,-8C5.7,8,5.7,8,21.6,8" id="282" stroke="#454545"/><path fill="none" stroke-linecap="round" transform="matrix(1,0,0,1,794.37,733.25)" ed:tosuperid="283" ed:parentid="287" stroke-linejoin="round" d="M-21.6,28.3L-10.6,28.3C5.7,-28.3,5.7,-28.3,21.6,-28.3" id="284" stroke="#454545"/><path fill="none" stroke-linecap="round" transform="matrix(1,0,0,1,794.37,747.75)" ed:tosuperid="285" ed:parentid="287" stroke-linejoin="round" d="M-10.6,13.8C5.7,-13.8,5.7,-13.8,21.6,-13.8" id="286" stroke="#454545"/><path fill="none" stroke-linecap="round" transform="matrix(1,0,0,1,654.28,761.5)" ed:tosuperid="287" ed:parentid="279" stroke-linejoin="round" d="M-21.6,0L-10.6,0C5.7,0,5.7,0,21.6,0" id="288" stroke="#454545"/><path fill="none" stroke-linecap="round" transform="matrix(1,0,0,1,933.57,770.25)" ed:tosuperid="289" ed:parentid="281" stroke-linejoin="round" d="M-21.6,7.3L-10.6,7.3C5.7,-7.3,5.7,-7.3,21.6,-7.3" id="290" stroke="#454545"/><path fill="none" stroke-linecap="round" transform="matrix(1,0,0,1,933.57,784.75)" ed:tosuperid="291" ed:parentid="281" stroke-linejoin="round" d="M-10.6,-7.3C5.7,7.3,5.7,7.3,21.6,7.3" id="292" stroke="#454545"/><path fill="none" stroke-linecap="round" transform="matrix(1,0,0,1,794.37,789.75)" ed:tosuperid="293" ed:parentid="287" stroke-linejoin="round" d="M-10.6,-28.3C5.7,28.3,5.7,28.3,21.6,28.3" id="294" stroke="#454545"/><path fill="none" stroke-linecap="round" transform="matrix(1,0,0,1,303.11,561.34)" ed:tosuperid="295" stroke-width="3" ed:parentid="101" stroke-linejoin="round" d="M-35,-74.4C-20.5,-2.9,35.7,106.4,114.4,106.4" id="296" stroke="#454545"/><path fill="none" stroke-linecap="round" transform="matrix(1,0,0,1,303.11,348.53)" ed:tosuperid="297" stroke-width="3" ed:parentid="101" stroke-linejoin="round" d="M-35,74.4C-20.5,2.9,35.7,-106.4,114.4,-106.4" id="298" stroke="#454545"/><g transform="matrix(1,0,0,1,23,422.94)" ed:height="64" ed:width="331.480625" ed:topictype="mainidea" id="101" ed:layout="rightmap"><path fill="#00af54" stroke-width="3" stroke-linejoin="round" d="M32,0L299.5,0C317.2,0,331.5,14.3,331.5,32C331.5,49.7,317.2,64,299.5,64L32,64C14.3,64,0,49.7,0,32C0,14.3,14.3,0,32,0z" stroke="#00af54"/><text class="st1"><tspan style="white-space:pre" textLength="276" x="28" y="43">云亿连（OpenIoTHub）</tspan></text></g><g transform="matrix(1,0,0,1,537.68,84.25)" ed:height="22.5" ed:parentid="297" ed:width="44" id="102"><path fill="#5e84ff" d="M0,0L44,0L44,22.5L0,22.5L0,0z"/><path fill="none" stroke-linejoin="round" d="M0,22.5L44,22.5" stroke="#454545"/><text class="st2"><tspan style="white-space:pre" textLength="26" x="8" y="16.65">网关</tspan></text></g><g transform="matrix(1,0,0,1,537.68,234.5)" ed:height="22.5" ed:parentid="297" ed:width="70" id="104"><path fill="#ef6653" d="M0,0L70,0L70,22.5L0,22.5L0,0z"/><path fill="none" stroke-linejoin="round" d="M0,22.5L70,22.5" stroke="#454545"/><text class="st2"><tspan style="white-space:pre" textLength="52" x="8" y="16.65">访问工具</tspan></text></g><g transform="matrix(1,0,0,1,537.68,326)" ed:height="22.5" ed:parentid="297" ed:width="109" id="194"><path fill="#f9d3d1" d="M0,0L109,0L109,22.5L0,22.5L0,0z"/><path fill="none" stroke-linejoin="round" d="M0,22.5L109,22.5" stroke="#454545"/><text class="st2"><tspan style="white-space:pre" textLength="91" x="8" y="16.65">流量中转服务器</tspan></text></g><g transform="matrix(1,0,0,1,537.68,355)" ed:height="22.5" ed:parentid="297" ed:width="83" id="196"><path fill="#4dc7bc" d="M0,0L83,0L83,22.5L0,22.5L0,0z"/><path fill="none" stroke-linejoin="round" d="M0,22.5L83,22.5" stroke="#454545"/><text class="st2"><tspan style="white-space:pre" textLength="65" x="8" y="16.65">应用服务器</tspan></text></g><g transform="matrix(1,0,0,1,624.88,33.5)" ed:height="22.5" ed:parentid="102" ed:width="57" id="198"><path fill="#ffffff" d="M0,0L57,0L57,22.5L0,22.5L0,0z"/><path fill="none" stroke-linejoin="round" d="M0,22.5L57,22.5" stroke="#454545"/><text class="st2"><tspan style="white-space:pre" textLength="39" x="8" y="16.65">终端版</tspan></text></g><g transform="matrix(1,0,0,1,624.88,91.5)" ed:height="22.5" ed:parentid="102" ed:width="160.734375" id="200"><path fill="#ffffff" d="M0,0L160.7,0L160.7,22.5L0,22.5L0,0z"/><path fill="none" stroke-linejoin="round" d="M0,22.5L160.7,22.5" stroke="#454545"/><text class="st2"><tspan style="white-space:pre" textLength="143" x="8" y="16.65">UI版（手机版，桌面版）</tspan></text></g><g transform="matrix(1,0,0,1,624.88,135)" ed:height="22.5" ed:parentid="102" ed:width="70" id="202"><path fill="#ffffff" d="M0,0L70,0L70,22.5L0,22.5L0,0z"/><path fill="none" stroke-linejoin="round" d="M0,22.5L70,22.5" stroke="#454545"/><text class="st2"><tspan style="white-space:pre" textLength="52" x="8" y="16.65">嵌入式版</tspan></text></g><g transform="matrix(1,0,0,1,725.08,19)" ed:height="22.5" ed:parentid="198" ed:width="199.140625" id="204"><path fill="#ffffff" d="M0,0L199.1,0L199.1,22.5L0,22.5L0,0z"/><path fill="none" stroke-linejoin="round" d="M0,22.5L199.1,22.5" stroke="#454545"/><text class="st2"><tspan style="white-space:pre" textLength="181" x="8" y="16.65">扫码添加到我的账号（TODO）</tspan></text></g><g transform="matrix(1,0,0,1,725.08,48)" ed:height="22.5" ed:parentid="198" ed:width="213" id="206"><path fill="#ffffff" d="M0,0L213,0L213,22.5L0,22.5L0,0z"/><path fill="none" stroke-linejoin="round" d="M0,22.5L213,22.5" stroke="#454545"/><text class="st2"><tspan style="white-space:pre" textLength="195" x="8" y="16.65">通过同局域网发现添加到我的账号</tspan></text></g><g transform="matrix(1,0,0,1,828.81,77)" ed:height="22.5" ed:parentid="200" ed:width="199.140625" id="208"><path fill="#ffffff" d="M0,0L199.1,0L199.1,22.5L0,22.5L0,0z"/><path fill="none" stroke-linejoin="round" d="M0,22.5L199.1,22.5" stroke="#454545"/><text class="st3"><tspan style="white-space:pre" textLength="181" x="8" class="st4" y="16.65">扫码添加到我的账号（TODO）</tspan></text></g><g transform="matrix(1,0,0,1,828.81,106)" ed:height="22.5" ed:parentid="200" ed:width="213" id="212"><path fill="#ffffff" d="M0,0L213,0L213,22.5L0,22.5L0,0z"/><path fill="none" stroke-linejoin="round" d="M0,22.5L213,22.5" stroke="#454545"/><text class="st3"><tspan style="white-space:pre" textLength="195" x="8" class="st4" y="16.65">通过同局域网发现添加到我的账号</tspan></text></g><g transform="matrix(1,0,0,1,738.08,135)" ed:height="22.5" ed:parentid="202" ed:width="433.140625" id="214"><path fill="#ffffff" d="M0,0L433.1,0L433.1,22.5L0,22.5L0,0z"/><path fill="none" stroke-linejoin="round" d="M0,22.5L433.1,22.5" stroke="#454545"/><text class="st3"><tspan style="white-space:pre" textLength="415" x="8" class="st4" y="16.65">通过同局域网发现添加到我的账号（TODO：优化性能和添加配置接口）</tspan></text></g><g transform="matrix(1,0,0,1,650.88,198)" ed:height="22.5" ed:parentid="104" ed:width="57" id="216"><path fill="#ffffff" d="M0,0L57,0L57,22.5L0,22.5L0,0z"/><path fill="none" stroke-linejoin="round" d="M0,22.5L57,22.5" stroke="#454545"/><text class="st2"><tspan style="white-space:pre" textLength="39" x="8" y="16.65">手机版</tspan></text></g><g transform="matrix(1,0,0,1,650.88,271)" ed:height="22.5" ed:parentid="104" ed:width="57" id="218"><path fill="#ffffff" d="M0,0L57,0L57,22.5L0,22.5L0,0z"/><path fill="none" stroke-linejoin="round" d="M0,22.5L57,22.5" stroke="#454545"/><text class="st2"><tspan style="white-space:pre" textLength="39" x="8" y="16.65">桌面版</tspan></text></g><g transform="matrix(1,0,0,1,751.08,180)" ed:height="19.5" ed:parentid="216" ed:width="68.421875" id="220"><path fill="#ffffff" d="M0,0L68.4,0L68.4,19.5L0,19.5L0,0z"/><path fill="none" stroke-linejoin="round" d="M0,19.5L68.4,19.5" stroke="#454545"/><text class="st2"><tspan style="white-space:pre" textLength="50" x="8" y="13.65">Android</tspan></text></g><g transform="matrix(1,0,0,1,751.08,222)" ed:height="19.5" ed:parentid="216" ed:width="38.84375" id="222"><path fill="#ffffff" d="M0,0L38.8,0L38.8,19.5L0,19.5L0,0z"/><path fill="none" stroke-linejoin="round" d="M0,19.5L38.8,19.5" stroke="#454545"/><text class="st2"><tspan style="white-space:pre" textLength="21" x="8" y="13.65">iOS</tspan></text></g><g transform="matrix(1,0,0,1,833.12,219)" ed:height="22.5" ed:parentid="222" ed:width="122" id="224"><path fill="#ffffff" d="M0,0L122,0L122,22.5L0,22.5L0,0z"/><path fill="none" stroke-linejoin="round" d="M0,22.5L122,22.5" stroke="#454545"/><text class="st2"><tspan style="white-space:pre" textLength="104" x="8" y="16.65">云易连（旧名称）</tspan></text></g><g transform="matrix(1,0,0,1,862.7,164)" ed:height="22.5" ed:parentid="220" ed:width="70" id="226"><path fill="#ffffff" d="M0,0L70,0L70,22.5L0,22.5L0,0z"/><path fill="none" stroke-linejoin="round" d="M0,22.5L70,22.5" stroke="#454545"/><text class="st2"><tspan style="white-space:pre" textLength="52" x="8" y="16.65">应用市场</tspan></text></g><g transform="matrix(1,0,0,1,862.7,193)" ed:height="19.5" ed:parentid="220" ed:width="60.296875" id="228"><path fill="#ffffff" d="M0,0L60.3,0L60.3,19.5L0,19.5L0,0z"/><path fill="none" stroke-linejoin="round" d="M0,19.5L60.3,19.5" stroke="#454545"/><text class="st2"><tspan style="white-space:pre" textLength="42" x="8" y="13.65">Github</tspan></text></g><g transform="matrix(1,0,0,1,751.08,248)" ed:height="19.5" ed:parentid="218" ed:width="58.5625" id="231"><path fill="#ffffff" d="M0,0L58.6,0L58.6,19.5L0,19.5L0,0z"/><path fill="none" stroke-linejoin="round" d="M0,19.5L58.6,19.5" stroke="#454545"/><text class="st2"><tspan style="white-space:pre" textLength="41" x="8" y="13.65">macos</tspan></text></g><g transform="matrix(1,0,0,1,751.08,274)" ed:height="19.5" ed:parentid="218" ed:width="72.625" id="233"><path fill="#ffffff" d="M0,0L72.6,0L72.6,19.5L0,19.5L0,0z"/><path fill="none" stroke-linejoin="round" d="M0,19.5L72.6,19.5" stroke="#454545"/><text class="st2"><tspan style="white-space:pre" textLength="55" x="8" y="13.65">windows</tspan></text></g><g transform="matrix(1,0,0,1,751.08,300)" ed:height="19.5" ed:parentid="218" ed:width="49.59375" id="235"><path fill="#ffffff" d="M0,0L49.6,0L49.6,19.5L0,19.5L0,0z"/><path fill="none" stroke-linejoin="round" d="M0,19.5L49.6,19.5" stroke="#454545"/><text class="st2"><tspan style="white-space:pre" textLength="32" x="8" y="13.65">linux</tspan></text></g><g transform="matrix(1,0,0,1,689.88,326)" ed:height="22.5" ed:parentid="194" ed:width="114.46875" id="237"><path fill="#ffffff" d="M0,0L114.5,0L114.5,22.5L0,22.5L0,0z"/><path fill="none" stroke-linejoin="round" d="M0,22.5L114.5,22.5" stroke="#454545"/><text class="st2"><tspan style="white-space:pre" textLength="96" x="8" y="16.65">server-go(稳定)</tspan></text></g><g transform="matrix(1,0,0,1,847.55,326)" ed:height="22.5" ed:parentid="237" ed:width="148" id="239"><path fill="#ffffff" d="M0,0L148,0L148,22.5L0,22.5L0,0z"/><path fill="none" stroke-linejoin="round" d="M0,22.5L148,22.5" stroke="#454545"/><text class="st2"><tspan style="white-space:pre" textLength="130" x="8" y="16.65">可以优化服务配置更新</tspan></text></g><g transform="matrix(1,0,0,1,663.88,355)" ed:height="22.5" ed:parentid="196" ed:width="144.71875" id="241"><path fill="#ffffff" d="M0,0L144.7,0L144.7,22.5L0,22.5L0,0z"/><path fill="none" stroke-linejoin="round" d="M0,22.5L144.7,22.5" stroke="#454545"/><text class="st2"><tspan style="white-space:pre" textLength="127" x="8" y="16.65">iot-manager(未开源)</tspan></text></g><g transform="matrix(1,0,0,1,851.8,355)" ed:height="22.5" ed:parentid="241" ed:width="187" id="243"><path fill="#ffffff" d="M0,0L187,0L187,22.5L0,22.5L0,0z"/><path fill="none" stroke-linejoin="round" d="M0,22.5L187,22.5" stroke="#454545"/><text class="st2"><tspan style="white-space:pre" textLength="169" x="8" y="16.65">根据其他部分的变化进行升级</tspan></text></g><g transform="matrix(1,0,0,1,998.32,219)" ed:height="22.5" ed:parentid="224" ed:width="57" id="245"><path fill="#ffffff" d="M0,0L57,0L57,22.5L0,22.5L0,0z"/><path fill="none" stroke-linejoin="round" d="M0,22.5L57,22.5" stroke="#454545"/><text class="st2"><tspan style="white-space:pre" textLength="39" x="8" y="16.65">云亿连</tspan></text></g><g transform="matrix(1,0,0,1,575.68,551.5)" ed:height="22.5" ed:parentid="295" ed:width="96" id="247"><path fill="#aad4b3" d="M0,0L96,0L96,22.5L0,22.5L0,0z"/><path fill="none" stroke-linejoin="round" d="M0,22.5L96,22.5" stroke="#454545"/><text class="st2"><tspan style="white-space:pre" textLength="78" x="8" y="16.65">智能家居固件</tspan></text></g><g transform="matrix(1,0,0,1,714.88,554.5)" ed:height="19.5" ed:parentid="247" ed:width="74.359375" id="251"><path fill="#ffffff" d="M0,0L74.4,0L74.4,19.5L0,19.5L0,0z"/><path fill="none" stroke-linejoin="round" d="M0,19.5L74.4,19.5" stroke="#454545"/><text class="st2"><tspan style="white-space:pre" textLength="56" x="8" y="13.65">iotdevice</tspan></text></g><g transform="matrix(1,0,0,1,832.44,446.5)" ed:height="22.5" ed:parentid="251" ed:width="161" id="253"><path fill="#ffffff" d="M0,0L161,0L161,22.5L0,22.5L0,0z"/><path fill="none" stroke-linejoin="round" d="M0,22.5L161,22.5" stroke="#454545"/><text class="st2"><tspan style="white-space:pre" textLength="143" x="8" y="16.65">斐讯等第三方硬件的支持</tspan></text></g><g transform="matrix(1,0,0,1,832.44,571)" ed:height="22.5" ed:parentid="251" ed:width="122" id="255"><path fill="#ffffff" d="M0,0L122,0L122,22.5L0,22.5L0,0z"/><path fill="none" stroke-linejoin="round" d="M0,22.5L122,22.5" stroke="#454545"/><text class="st2"><tspan style="white-space:pre" textLength="104" x="8" y="16.65">自由协议开源硬件</tspan></text></g><g transform="matrix(1,0,0,1,1036.64,410.5)" ed:height="19.5" ed:parentid="253" ed:width="44.9375" id="257"><path fill="#ffffff" d="M0,0L44.9,0L44.9,19.5L0,19.5L0,0z"/><path fill="none" stroke-linejoin="round" d="M0,19.5L44.9,19.5" stroke="#454545"/><text class="st2"><tspan style="white-space:pre" textLength="27" x="8" y="13.65">DC1</tspan></text></g><g transform="matrix(1,0,0,1,1036.64,449.5)" ed:height="19.5" ed:parentid="253" ed:width="43.421875" id="259"><path fill="#ffffff" d="M0,0L43.4,0L43.4,19.5L0,19.5L0,0z"/><path fill="none" stroke-linejoin="round" d="M0,19.5L43.4,19.5" stroke="#454545"/><text class="st2"><tspan style="white-space:pre" textLength="25" x="8" y="13.65">TC1</tspan></text></g><g transform="matrix(1,0,0,1,1123.26,436.5)" ed:height="19.5" ed:parentid="259" ed:width="35.1875" id="261"><path fill="#ffffff" d="M0,0L35.2,0L35.2,19.5L0,19.5L0,0z"/><path fill="none" stroke-linejoin="round" d="M0,19.5L35.2,19.5" stroke="#454545"/><text class="st2"><tspan style="white-space:pre" textLength="17" x="8" y="13.65">A1</tspan></text></g><g transform="matrix(1,0,0,1,1123.26,462.5)" ed:height="19.5" ed:parentid="259" ed:width="35.1875" id="263"><path fill="#ffffff" d="M0,0L35.2,0L35.2,19.5L0,19.5L0,0z"/><path fill="none" stroke-linejoin="round" d="M0,19.5L35.2,19.5" stroke="#454545"/><text class="st2"><tspan style="white-space:pre" textLength="17" x="8" y="13.65">A2</tspan></text></g><g transform="matrix(1,0,0,1,1036.64,488.5)" ed:height="19.5" ed:parentid="253" ed:width="30.328125" id="265"><path fill="#ffffff" d="M0,0L30.3,0L30.3,19.5L0,19.5L0,0z"/><path fill="none" stroke-linejoin="round" d="M0,19.5L30.3,19.5" stroke="#454545"/><text class="st2"><tspan style="white-space:pre" textLength="12" x="8" y="13.65">...</tspan></text></g><g transform="matrix(1,0,0,1,997.64,514.5)" ed:height="22.5" ed:parentid="255" ed:width="44" id="267"><path fill="#ffffff" d="M0,0L44,0L44,22.5L0,22.5L0,0z"/><path fill="none" stroke-linejoin="round" d="M0,22.5L44,22.5" stroke="#454545"/><text class="st2"><tspan style="white-space:pre" textLength="26" x="8" y="16.65">开关</tspan></text></g><g transform="matrix(1,0,0,1,997.64,543.5)" ed:height="22.5" ed:parentid="255" ed:width="44" id="269"><path fill="#ffffff" d="M0,0L44,0L44,22.5L0,22.5L0,0z"/><path fill="none" stroke-linejoin="round" d="M0,22.5L44,22.5" stroke="#454545"/><text class="st2"><tspan style="white-space:pre" textLength="26" x="8" y="16.65">彩灯</tspan></text></g><g transform="matrix(1,0,0,1,997.64,572.5)" ed:height="22.5" ed:parentid="255" ed:width="109" id="271"><path fill="#ffffff" d="M0,0L109,0L109,22.5L0,22.5L0,0z"/><path fill="none" stroke-linejoin="round" d="M0,22.5L109,22.5" stroke="#454545"/><text class="st2"><tspan style="white-space:pre" textLength="91" x="8" y="16.65">家用遥控卷帘门</tspan></text></g><g transform="matrix(1,0,0,1,997.64,601.5)" ed:height="22.5" ed:parentid="255" ed:width="83" id="273"><path fill="#ffffff" d="M0,0L83,0L83,22.5L0,22.5L0,0z"/><path fill="none" stroke-linejoin="round" d="M0,22.5L83,22.5" stroke="#454545"/><text class="st2"><tspan style="white-space:pre" textLength="65" x="8" y="16.65">远程摄像头</tspan></text></g><g transform="matrix(1,0,0,1,997.64,630.5)" ed:height="19.5" ed:parentid="255" ed:width="30.328125" id="275"><path fill="#ffffff" d="M0,0L30.3,0L30.3,19.5L0,19.5L0,0z"/><path fill="none" stroke-linejoin="round" d="M0,19.5L30.3,19.5" stroke="#454545"/><text class="st2"><tspan style="white-space:pre" textLength="12" x="8" y="13.65">...</tspan></text></g><g transform="matrix(1,0,0,1,832.44,656.5)" ed:height="22.5" ed:parentid="251" ed:width="84.625" id="277"><path fill="#c00000" d="M0,0L84.6,0L84.6,22.5L0,22.5L0,0z"/><path fill="none" stroke-linejoin="round" d="M0,22.5L84.6,22.5" stroke="#454545"/><text class="st2"><tspan style="white-space:pre" textLength="67" x="8" y="16.65">Matter协议</tspan></text></g><g transform="matrix(1,0,0,1,575.68,739)" ed:height="22.5" ed:parentid="295" ed:width="57" id="279"><path fill="#fce3cc" d="M0,0L57,0L57,22.5L0,22.5L0,0z"/><path fill="none" stroke-linejoin="round" d="M0,22.5L57,22.5" stroke="#454545"/><text class="st2"><tspan style="white-space:pre" textLength="39" x="8" y="16.65">私有云</tspan></text></g><g transform="matrix(1,0,0,1,815.97,755)" ed:height="22.5" ed:parentid="287" ed:width="96" id="281"><path fill="#ffffff" d="M0,0L96,0L96,22.5L0,22.5L0,0z"/><path fill="none" stroke-linejoin="round" d="M0,22.5L96,22.5" stroke="#454545"/><text class="st2"><tspan style="white-space:pre" textLength="78" x="8" y="16.65">远程端口访问</tspan></text></g><g transform="matrix(1,0,0,1,815.97,685.5)" ed:height="19.5" ed:parentid="287" ed:width="43.5625" id="283"><path fill="#ffffff" d="M0,0L43.6,0L43.6,19.5L0,19.5L0,0z"/><path fill="none" stroke-linejoin="round" d="M0,19.5L43.6,19.5" stroke="#454545"/><text class="st2"><tspan style="white-space:pre" textLength="26" x="8" y="13.65">NAS</tspan></text></g><g transform="matrix(1,0,0,1,815.97,711.5)" ed:height="22.5" ed:parentid="287" ed:width="70" id="285"><path fill="#ffffff" d="M0,0L70,0L70,22.5L0,22.5L0,0z"/><path fill="none" stroke-linejoin="round" d="M0,22.5L70,22.5" stroke="#454545"/><text class="st2"><tspan style="white-space:pre" textLength="52" x="8" y="16.65">远程下载</tspan></text></g><g transform="matrix(1,0,0,1,675.88,742)" ed:height="19.5" ed:parentid="279" ed:width="96.890625" id="287"><path fill="#ffffff" d="M0,0L96.9,0L96.9,19.5L0,19.5L0,0z"/><path fill="none" stroke-linejoin="round" d="M0,19.5L96.9,19.5" stroke="#454545"/><text class="st2"><tspan style="white-space:pre" textLength="79" x="8" y="13.65">mdnsService</tspan></text></g><g transform="matrix(1,0,0,1,955.17,740.5)" ed:height="22.5" ed:parentid="281" ed:width="44" id="289"><path fill="#ffffff" d="M0,0L44,0L44,22.5L0,22.5L0,0z"/><path fill="none" stroke-linejoin="round" d="M0,22.5L44,22.5" stroke="#454545"/><text class="st2"><tspan style="white-space:pre" textLength="26" x="8" y="16.65">桌面</tspan></text></g><g transform="matrix(1,0,0,1,955.17,769.5)" ed:height="22.5" ed:parentid="281" ed:width="57" id="291"><path fill="#ffffff" d="M0,0L57,0L57,22.5L0,22.5L0,0z"/><path fill="none" stroke-linejoin="round" d="M0,22.5L57,22.5" stroke="#454545"/><text class="st2"><tspan style="white-space:pre" textLength="39" x="8" y="16.65">数据库</tspan></text></g><g transform="matrix(1,0,0,1,815.97,798.5)" ed:height="19.5" ed:parentid="287" ed:width="30.328125" id="293"><path fill="#ffffff" d="M0,0L30.3,0L30.3,19.5L0,19.5L0,0z"/><path fill="none" stroke-linejoin="round" d="M0,19.5L30.3,19.5" stroke="#454545"/><text class="st2"><tspan style="white-space:pre" textLength="12" x="8" y="13.65">...</tspan></text></g><g transform="matrix(1,0,0,1,417.48,646.75)" ed:height="42" ed:parentid="101" ed:width="115" id="295"><path fill="#fce3cc" stroke-width="2" stroke-linejoin="round" d="M4,0L111,0C113.7,0,115,1.3,115,4L115,38C115,40.7,113.7,42,111,42L4,42C1.3,42,0,40.7,0,38L0,4C0,1.3,1.3,0,4,0z" stroke="#454545"/><text class="st5"><tspan style="white-space:pre" textLength="76" x="18" y="29.5">应用场景</tspan></text></g><g transform="matrix(1,0,0,1,417.48,221.13)" ed:height="42" ed:parentid="101" ed:width="77" id="297"><path fill="#cbe3d1" stroke-width="2" stroke-linejoin="round" d="M4,0L73,0C75.7,0,77,1.3,77,4L77,38C77,40.7,75.7,42,73,42L4,42C1.3,42,0,40.7,0,38L0,4C0,1.3,1.3,0,4,0z" stroke="#454545"/><text class="st5"><tspan style="white-space:pre" textLength="38" x="18" y="29.5">软件</tspan></text></g></svg>